solid OpenSCAD_Model
  facet normal 0 1 -0
    outer loop
      vertex 32.309 -11.0489 0
      vertex -0.309016 -11.0489 1
      vertex 32.309 -11.0489 1
    endloop
  endfacet
  facet normal 0 1 0
    outer loop
      vertex -0.309016 -11.0489 1
      vertex 32.309 -11.0489 0
      vertex -0.309016 -11.0489 0
    endloop
  endfacet
  facet normal 0 -1 0
    outer loop
      vertex -0.309016 -20.9511 0
      vertex 32.309 -20.9511 1
      vertex -0.309016 -20.9511 1
    endloop
  endfacet
  facet normal 0 -1 -0
    outer loop
      vertex 32.309 -20.9511 1
      vertex -0.309016 -20.9511 0
      vertex 32.309 -20.9511 0
    endloop
  endfacet
  facet normal 0 0 1
    outer loop
      vertex 32.1854 -12.4294 1
      vertex 33 -12 1
      vertex 32.809 -11.4122 1
    endloop
  endfacet
  facet normal 0 0 1
    outer loop
      vertex 33 -12 1
      vertex 32.6 -13 1
      vertex 33 -20 1
    endloop
  endfacet
  facet normal -0 0 1
    outer loop
      vertex 32.6 -19 1
      vertex 33 -20 1
      vertex 32.6 -13 1
    endloop
  endfacet
  facet normal 0 0 1
    outer loop
      vertex 32.1854 -12.4294 1
      vertex 32.809 -11.4122 1
      vertex 32.309 -11.0489 1
    endloop
  endfacet
  facet normal 0 0 1
    outer loop
      vertex 33 -12 1
      vertex 32.1854 -12.4294 1
      vertex 32.6 -13 1
    endloop
  endfacet
  facet normal 0 0 1
    outer loop
      vertex 32.309 -11.0489 1
      vertex 31.5146 -12.6473 1
      vertex 32.1854 -12.4294 1
    endloop
  endfacet
  facet normal 0 0 1
    outer loop
      vertex 31.5146 -12.6473 1
      vertex 15 -13 1
      vertex 31.5146 -19.3527 1
    endloop
  endfacet
  facet normal -0 0 1
    outer loop
      vertex 14.809 -12.4122 1
      vertex 31.5146 -12.6473 1
      vertex 32.309 -11.0489 1
    endloop
  endfacet
  facet normal 0 0 1
    outer loop
      vertex 31.5146 -12.6473 1
      vertex 14.809 -12.4122 1
      vertex 15 -13 1
    endloop
  endfacet
  facet normal 0 0 1
    outer loop
      vertex 32.309 -11.0489 1
      vertex 14.309 -12.0489 1
      vertex 14.809 -12.4122 1
    endloop
  endfacet
  facet normal -0 0 1
    outer loop
      vertex -0.309016 -11.0489 1
      vertex 14.309 -12.0489 1
      vertex 32.309 -11.0489 1
    endloop
  endfacet
  facet normal 0 0 1
    outer loop
      vertex 1 -13 1
      vertex 0.599999 -13 1
      vertex 1 -19 1
    endloop
  endfacet
  facet normal 0 0 1
    outer loop
      vertex 1.19098 -12.4122 1
      vertex 0.599999 -13 1
      vertex 1 -13 1
    endloop
  endfacet
  facet normal 0 0 1
    outer loop
      vertex 1.19098 -12.4122 1
      vertex 0.18541 -12.4294 1
      vertex 0.599999 -13 1
    endloop
  endfacet
  facet normal 0 0 1
    outer loop
      vertex -0.309016 -11.0489 1
      vertex 1.19098 -12.4122 1
      vertex 1.69098 -12.0489 1
    endloop
  endfacet
  facet normal 0 0 1
    outer loop
      vertex 14.309 -12.0489 1
      vertex -0.309016 -11.0489 1
      vertex 1.69098 -12.0489 1
    endloop
  endfacet
  facet normal 0 0 1
    outer loop
      vertex 1.19098 -12.4122 1
      vertex -0.309016 -11.0489 1
      vertex 0.18541 -12.4294 1
    endloop
  endfacet
  facet normal -0 0 1
    outer loop
      vertex -0.809016 -11.4122 1
      vertex 0.18541 -12.4294 1
      vertex -0.309016 -11.0489 1
    endloop
  endfacet
  facet normal 0 0 1
    outer loop
      vertex 0.18541 -12.4294 1
      vertex -1 -12 1
      vertex -0.48541 -12.6473 1
    endloop
  endfacet
  facet normal -0 0 1
    outer loop
      vertex -1 -12 1
      vertex 0.18541 -12.4294 1
      vertex -0.809016 -11.4122 1
    endloop
  endfacet
  facet normal -0 0 1
    outer loop
      vertex 32.1854 -19.5706 1
      vertex 33 -20 1
      vertex 32.6 -19 1
    endloop
  endfacet
  facet normal 0 0 1
    outer loop
      vertex 33 -20 1
      vertex 32.1854 -19.5706 1
      vertex 32.809 -20.5878 1
    endloop
  endfacet
  facet normal 0 0 1
    outer loop
      vertex 32.809 -20.5878 1
      vertex 32.1854 -19.5706 1
      vertex 32.309 -20.9511 1
    endloop
  endfacet
  facet normal 0 0 1
    outer loop
      vertex 31.5146 -19.3527 1
      vertex 32.309 -20.9511 1
      vertex 32.1854 -19.5706 1
    endloop
  endfacet
  facet normal -0 0 1
    outer loop
      vertex 15 -19 1
      vertex 31.5146 -19.3527 1
      vertex 15 -13 1
    endloop
  endfacet
  facet normal 0 0 1
    outer loop
      vertex 14.809 -19.5878 1
      vertex 31.5146 -19.3527 1
      vertex 15 -19 1
    endloop
  endfacet
  facet normal 0 0 1
    outer loop
      vertex 31.5146 -19.3527 1
      vertex 14.809 -19.5878 1
      vertex 32.309 -20.9511 1
    endloop
  endfacet
  facet normal -0 0 1
    outer loop
      vertex 14.309 -19.9511 1
      vertex 32.309 -20.9511 1
      vertex 14.809 -19.5878 1
    endloop
  endfacet
  facet normal 0 0 1
    outer loop
      vertex -0.309016 -20.9511 1
      vertex 14.309 -19.9511 1
      vertex 1.69098 -19.9511 1
    endloop
  endfacet
  facet normal 0 0 1
    outer loop
      vertex 0.599999 -19 1
      vertex 1 -19 1
      vertex 0.599999 -13 1
    endloop
  endfacet
  facet normal -0 0 1
    outer loop
      vertex 0.599999 -19 1
      vertex 1.19098 -19.5878 1
      vertex 1 -19 1
    endloop
  endfacet
  facet normal -0 0 1
    outer loop
      vertex 0.18541 -19.5706 1
      vertex 1.19098 -19.5878 1
      vertex 0.599999 -19 1
    endloop
  endfacet
  facet normal 0 0 1
    outer loop
      vertex -0.309016 -20.9511 1
      vertex 1.19098 -19.5878 1
      vertex 0.18541 -19.5706 1
    endloop
  endfacet
  facet normal 0 0 1
    outer loop
      vertex 14.309 -19.9511 1
      vertex -0.309016 -20.9511 1
      vertex 32.309 -20.9511 1
    endloop
  endfacet
  facet normal 0 0 1
    outer loop
      vertex 1.19098 -19.5878 1
      vertex -0.309016 -20.9511 1
      vertex 1.69098 -19.9511 1
    endloop
  endfacet
  facet normal 0 0 1
    outer loop
      vertex -1 -20 1
      vertex 0.18541 -19.5706 1
      vertex -0.48541 -19.3527 1
    endloop
  endfacet
  facet normal 0 0 1
    outer loop
      vertex 0.18541 -19.5706 1
      vertex -0.809016 -20.5878 1
      vertex -0.309016 -20.9511 1
    endloop
  endfacet
  facet normal 0 0 1
    outer loop
      vertex -0.48541 -12.6473 1
      vertex -1 -12 1
      vertex -0.48541 -19.3527 1
    endloop
  endfacet
  facet normal 0 0 1
    outer loop
      vertex -1 -20 1
      vertex -0.48541 -19.3527 1
      vertex -1 -12 1
    endloop
  endfacet
  facet normal 0 0 1
    outer loop
      vertex 0.18541 -19.5706 1
      vertex -1 -20 1
      vertex -0.809016 -20.5878 1
    endloop
  endfacet
  facet normal 1 -0 0
    outer loop
      vertex 33 -20 1
      vertex 33 -12 0
      vertex 33 -12 1
    endloop
  endfacet
  facet normal 1 0 0
    outer loop
      vertex 33 -12 0
      vertex 33 -20 1
      vertex 33 -20 0
    endloop
  endfacet
  facet normal -0.951056 0.309018 0
    outer loop
      vertex -1 -12 0
      vertex -0.809016 -11.4122 1
      vertex -0.809016 -11.4122 0
    endloop
  endfacet
  facet normal -0.951056 0.309018 0
    outer loop
      vertex -0.809016 -11.4122 1
      vertex -1 -12 0
      vertex -1 -12 1
    endloop
  endfacet
  facet normal 0.951056 -0.309017 0
    outer loop
      vertex 32.809 -20.5878 1
      vertex 33 -20 0
      vertex 33 -20 1
    endloop
  endfacet
  facet normal 0.951056 -0.309017 0
    outer loop
      vertex 33 -20 0
      vertex 32.809 -20.5878 1
      vertex 32.809 -20.5878 0
    endloop
  endfacet
  facet normal 0.587788 -0.809015 0
    outer loop
      vertex 32.309 -20.9511 0
      vertex 32.809 -20.5878 1
      vertex 32.309 -20.9511 1
    endloop
  endfacet
  facet normal 0.587788 -0.809015 0
    outer loop
      vertex 32.809 -20.5878 1
      vertex 32.309 -20.9511 0
      vertex 32.809 -20.5878 0
    endloop
  endfacet
  facet normal -1 0 0
    outer loop
      vertex -1 -20 0
      vertex -1 -12 1
      vertex -1 -12 0
    endloop
  endfacet
  facet normal -1 -0 0
    outer loop
      vertex -1 -12 1
      vertex -1 -20 0
      vertex -1 -20 1
    endloop
  endfacet
  facet normal -0.587786 0.809017 0
    outer loop
      vertex -0.309016 -11.0489 0
      vertex -0.809016 -11.4122 1
      vertex -0.309016 -11.0489 1
    endloop
  endfacet
  facet normal -0.587786 0.809017 0
    outer loop
      vertex -0.809016 -11.4122 1
      vertex -0.309016 -11.0489 0
      vertex -0.809016 -11.4122 0
    endloop
  endfacet
  facet normal -0.951056 -0.309019 0
    outer loop
      vertex -0.809016 -20.5878 0
      vertex -1 -20 1
      vertex -1 -20 0
    endloop
  endfacet
  facet normal -0.951056 -0.309019 0
    outer loop
      vertex -1 -20 1
      vertex -0.809016 -20.5878 0
      vertex -0.809016 -20.5878 1
    endloop
  endfacet
  facet normal 0.587786 0.809017 -0
    outer loop
      vertex 32.809 -11.4122 0
      vertex 32.309 -11.0489 1
      vertex 32.809 -11.4122 1
    endloop
  endfacet
  facet normal 0.587786 0.809017 0
    outer loop
      vertex 32.309 -11.0489 1
      vertex 32.809 -11.4122 0
      vertex 32.309 -11.0489 0
    endloop
  endfacet
  facet normal 0.951057 0.309017 0
    outer loop
      vertex 33 -12 1
      vertex 32.809 -11.4122 0
      vertex 32.809 -11.4122 1
    endloop
  endfacet
  facet normal 0.951057 0.309017 0
    outer loop
      vertex 32.809 -11.4122 0
      vertex 33 -12 1
      vertex 33 -12 0
    endloop
  endfacet
  facet normal 0 0 -1
    outer loop
      vertex 32.309 -20.9511 0
      vertex 33 -20 0
      vertex 32.809 -20.5878 0
    endloop
  endfacet
  facet normal -0 0 -1
    outer loop
      vertex 33 -20 0
      vertex 32.309 -20.9511 0
      vertex 33 -12 0
    endloop
  endfacet
  facet normal 0 0 -1
    outer loop
      vertex 32.309 -11.0489 0
      vertex 33 -12 0
      vertex 32.309 -20.9511 0
    endloop
  endfacet
  facet normal 0 0 -1
    outer loop
      vertex 33 -12 0
      vertex 32.309 -11.0489 0
      vertex 32.809 -11.4122 0
    endloop
  endfacet
  facet normal 0 0 -1
    outer loop
      vertex 32.309 -20.9511 0
      vertex 15 -19 0
      vertex 32.309 -11.0489 0
    endloop
  endfacet
  facet normal 0 0 -1
    outer loop
      vertex 32.309 -20.9511 0
      vertex 14.809 -19.5878 0
      vertex 15 -19 0
    endloop
  endfacet
  facet normal 0 0 -1
    outer loop
      vertex 32.309 -20.9511 0
      vertex 14.309 -19.9511 0
      vertex 14.809 -19.5878 0
    endloop
  endfacet
  facet normal 0 0 -1
    outer loop
      vertex -0.309016 -20.9511 0
      vertex 14.309 -19.9511 0
      vertex 32.309 -20.9511 0
    endloop
  endfacet
  facet normal -0 0 -1
    outer loop
      vertex 1.19098 -19.5878 0
      vertex -1 -20 0
      vertex 1 -19 0
    endloop
  endfacet
  facet normal 0 0 -1
    outer loop
      vertex -1 -20 0
      vertex 1.19098 -19.5878 0
      vertex -0.309016 -20.9511 0
    endloop
  endfacet
  facet normal -0 0 -1
    outer loop
      vertex 1.69098 -19.9511 0
      vertex -0.309016 -20.9511 0
      vertex 1.19098 -19.5878 0
    endloop
  endfacet
  facet normal -0 0 -1
    outer loop
      vertex 14.309 -19.9511 0
      vertex -0.309016 -20.9511 0
      vertex 1.69098 -19.9511 0
    endloop
  endfacet
  facet normal 0 0 -1
    outer loop
      vertex 15 -13 0
      vertex 32.309 -11.0489 0
      vertex 15 -19 0
    endloop
  endfacet
  facet normal 0 0 -1
    outer loop
      vertex 14.809 -12.4122 0
      vertex 32.309 -11.0489 0
      vertex 15 -13 0
    endloop
  endfacet
  facet normal 0 0 -1
    outer loop
      vertex 14.309 -12.0489 0
      vertex 32.309 -11.0489 0
      vertex 14.809 -12.4122 0
    endloop
  endfacet
  facet normal 0 0 -1
    outer loop
      vertex -0.309016 -11.0489 0
      vertex 14.309 -12.0489 0
      vertex 1.69098 -12.0489 0
    endloop
  endfacet
  facet normal 0 0 -1
    outer loop
      vertex 14.309 -12.0489 0
      vertex -0.309016 -11.0489 0
      vertex 32.309 -11.0489 0
    endloop
  endfacet
  facet normal 0 0 -1
    outer loop
      vertex 1.19098 -12.4122 0
      vertex -0.309016 -11.0489 0
      vertex 1.69098 -12.0489 0
    endloop
  endfacet
  facet normal 0 0 -1
    outer loop
      vertex -1 -12 0
      vertex 1.19098 -12.4122 0
      vertex 1 -13 0
    endloop
  endfacet
  facet normal -0 0 -1
    outer loop
      vertex 1 -19 0
      vertex -1 -20 0
      vertex 1 -13 0
    endloop
  endfacet
  facet normal 0 0 -1
    outer loop
      vertex -1 -20 0
      vertex -0.309016 -20.9511 0
      vertex -0.809016 -20.5878 0
    endloop
  endfacet
  facet normal 0 0 -1
    outer loop
      vertex -1 -12 0
      vertex 1 -13 0
      vertex -1 -20 0
    endloop
  endfacet
  facet normal 0 0 -1
    outer loop
      vertex 1.19098 -12.4122 0
      vertex -1 -12 0
      vertex -0.309016 -11.0489 0
    endloop
  endfacet
  facet normal 0 0 -1
    outer loop
      vertex -0.309016 -11.0489 0
      vertex -1 -12 0
      vertex -0.809016 -11.4122 0
    endloop
  endfacet
  facet normal -0.587788 -0.809015 0
    outer loop
      vertex -0.809016 -20.5878 0
      vertex -0.309016 -20.9511 1
      vertex -0.809016 -20.5878 1
    endloop
  endfacet
  facet normal -0.587788 -0.809015 -0
    outer loop
      vertex -0.309016 -20.9511 1
      vertex -0.809016 -20.5878 0
      vertex -0.309016 -20.9511 0
    endloop
  endfacet
  facet normal -0.951056 -0.309018 0
    outer loop
      vertex 15 -13 0
      vertex 14.809 -12.4122 1
      vertex 14.809 -12.4122 0
    endloop
  endfacet
  facet normal -0.951056 -0.309018 0
    outer loop
      vertex 14.809 -12.4122 1
      vertex 15 -13 0
      vertex 15 -13 1
    endloop
  endfacet
  facet normal 0 -1 0
    outer loop
      vertex 1.69098 -12.0489 0
      vertex 14.309 -12.0489 1
      vertex 1.69098 -12.0489 1
    endloop
  endfacet
  facet normal 0 -1 -0
    outer loop
      vertex 14.309 -12.0489 1
      vertex 1.69098 -12.0489 0
      vertex 14.309 -12.0489 0
    endloop
  endfacet
  facet normal -0.587786 -0.809017 0
    outer loop
      vertex 14.309 -12.0489 0
      vertex 14.809 -12.4122 1
      vertex 14.309 -12.0489 1
    endloop
  endfacet
  facet normal -0.587786 -0.809017 -0
    outer loop
      vertex 14.809 -12.4122 1
      vertex 14.309 -12.0489 0
      vertex 14.809 -12.4122 0
    endloop
  endfacet
  facet normal 0.951057 0.309016 0
    outer loop
      vertex 1.19098 -19.5878 1
      vertex 1 -19 0
      vertex 1 -19 1
    endloop
  endfacet
  facet normal 0.951057 0.309016 0
    outer loop
      vertex 1 -19 0
      vertex 1.19098 -19.5878 1
      vertex 1.19098 -19.5878 0
    endloop
  endfacet
  facet normal 0.587786 0.809017 -0
    outer loop
      vertex 1.69098 -19.9511 0
      vertex 1.19098 -19.5878 1
      vertex 1.69098 -19.9511 1
    endloop
  endfacet
  facet normal 0.587786 0.809017 0
    outer loop
      vertex 1.19098 -19.5878 1
      vertex 1.69098 -19.9511 0
      vertex 1.19098 -19.5878 0
    endloop
  endfacet
  facet normal 0.587786 -0.809017 0
    outer loop
      vertex 1.19098 -12.4122 0
      vertex 1.69098 -12.0489 1
      vertex 1.19098 -12.4122 1
    endloop
  endfacet
  facet normal 0.587786 -0.809017 0
    outer loop
      vertex 1.69098 -12.0489 1
      vertex 1.19098 -12.4122 0
      vertex 1.69098 -12.0489 0
    endloop
  endfacet
  facet normal 0.951057 -0.309017 0
    outer loop
      vertex 1 -13 1
      vertex 1.19098 -12.4122 0
      vertex 1.19098 -12.4122 1
    endloop
  endfacet
  facet normal 0.951057 -0.309017 0
    outer loop
      vertex 1.19098 -12.4122 0
      vertex 1 -13 1
      vertex 1 -13 0
    endloop
  endfacet
  facet normal -1 0 0
    outer loop
      vertex 15 -19 0
      vertex 15 -13 1
      vertex 15 -13 0
    endloop
  endfacet
  facet normal -1 -0 0
    outer loop
      vertex 15 -13 1
      vertex 15 -19 0
      vertex 15 -19 1
    endloop
  endfacet
  facet normal -0.587786 0.809017 0
    outer loop
      vertex 14.809 -19.5878 0
      vertex 14.309 -19.9511 1
      vertex 14.809 -19.5878 1
    endloop
  endfacet
  facet normal -0.587786 0.809017 0
    outer loop
      vertex 14.309 -19.9511 1
      vertex 14.809 -19.5878 0
      vertex 14.309 -19.9511 0
    endloop
  endfacet
  facet normal -0.951056 0.309018 0
    outer loop
      vertex 14.809 -19.5878 0
      vertex 15 -19 1
      vertex 15 -19 0
    endloop
  endfacet
  facet normal -0.951056 0.309018 0
    outer loop
      vertex 15 -19 1
      vertex 14.809 -19.5878 0
      vertex 14.809 -19.5878 1
    endloop
  endfacet
  facet normal 0 1 -0
    outer loop
      vertex 14.309 -19.9511 0
      vertex 1.69098 -19.9511 1
      vertex 14.309 -19.9511 1
    endloop
  endfacet
  facet normal 0 1 0
    outer loop
      vertex 1.69098 -19.9511 1
      vertex 14.309 -19.9511 0
      vertex 1.69098 -19.9511 0
    endloop
  endfacet
  facet normal 1 -0 0
    outer loop
      vertex 1 -19 1
      vertex 1 -13 0
      vertex 1 -13 1
    endloop
  endfacet
  facet normal 1 0 0
    outer loop
      vertex 1 -13 0
      vertex 1 -19 1
      vertex 1 -19 0
    endloop
  endfacet
  facet normal -0 0 1
    outer loop
      vertex -0.242704 -12.8237 1.51962
      vertex 0.299999 -13 1.51962
      vertex 0.0927048 -12.7147 1.51962
    endloop
  endfacet
  facet normal 0 0 1
    outer loop
      vertex 0.299999 -13 1.51962
      vertex -0.242704 -12.8237 1.51962
      vertex 0.299999 -19 1.51962
    endloop
  endfacet
  facet normal 0 0 1
    outer loop
      vertex -0.242704 -19.1763 1.51962
      vertex 0.299999 -19 1.51962
      vertex -0.242704 -12.8237 1.51962
    endloop
  endfacet
  facet normal 0 0 1
    outer loop
      vertex 0.299999 -19 1.51962
      vertex -0.242704 -19.1763 1.51962
      vertex 0.0927048 -19.2853 1.51962
    endloop
  endfacet
  facet normal 0.733 0.532555 0.423198
    outer loop
      vertex 0.18541 -12.4294 1
      vertex 0.0927048 -12.7147 1.51962
      vertex 0.599999 -13 1
    endloop
  endfacet
  facet normal 0.733 0.532555 0.423198
    outer loop
      vertex 0.599999 -13 1
      vertex 0.0927048 -12.7147 1.51962
      vertex 0.299999 -13 1.51962
    endloop
  endfacet
  facet normal 0.733 -0.532555 0.423198
    outer loop
      vertex 0.599999 -19 1
      vertex 0.0927048 -19.2853 1.51962
      vertex 0.18541 -19.5706 1
    endloop
  endfacet
  facet normal -0.279982 0.861692 0.423198
    outer loop
      vertex 0.18541 -12.4294 1
      vertex -0.48541 -12.6473 1
      vertex -0.242704 -12.8237 1.51962
    endloop
  endfacet
  facet normal -0.279981 0.861692 0.423198
    outer loop
      vertex 0.18541 -12.4294 1
      vertex -0.242704 -12.8237 1.51962
      vertex 0.0927048 -12.7147 1.51962
    endloop
  endfacet
  facet normal 0.866025 -0 0.5
    outer loop
      vertex 0.299999 -19 1.51962
      vertex 0.599999 -13 1
      vertex 0.299999 -13 1.51962
    endloop
  endfacet
  facet normal 0.866025 0 0.5
    outer loop
      vertex 0.599999 -13 1
      vertex 0.299999 -19 1.51962
      vertex 0.599999 -19 1
    endloop
  endfacet
  facet normal -0.279981 -0.861692 0.423199
    outer loop
      vertex -0.242704 -19.1763 1.51962
      vertex -0.48541 -19.3527 1
      vertex 0.18541 -19.5706 1
    endloop
  endfacet
  facet normal -0.906037 0 0.423198
    outer loop
      vertex -0.48541 -12.6473 1
      vertex -0.242704 -19.1763 1.51962
      vertex -0.242704 -12.8237 1.51962
    endloop
  endfacet
  facet normal -0.906037 0 0.423198
    outer loop
      vertex -0.242704 -19.1763 1.51962
      vertex -0.48541 -12.6473 1
      vertex -0.48541 -19.3527 1
    endloop
  endfacet
  facet normal -0.279979 -0.861692 0.4232
    outer loop
      vertex 0.0927048 -19.2853 1.51962
      vertex -0.242704 -19.1763 1.51962
      vertex 0.18541 -19.5706 1
    endloop
  endfacet
  facet normal 0.733 -0.532555 0.423198
    outer loop
      vertex 0.299999 -19 1.51962
      vertex 0.0927048 -19.2853 1.51962
      vertex 0.599999 -19 1
    endloop
  endfacet
  facet normal -0 0 1
    outer loop
      vertex 31.7573 -12.8237 1.51962
      vertex 32.3 -13 1.51962
      vertex 32.0927 -12.7147 1.51962
    endloop
  endfacet
  facet normal 0 0 1
    outer loop
      vertex 32.3 -13 1.51962
      vertex 31.7573 -12.8237 1.51962
      vertex 32.3 -19 1.51962
    endloop
  endfacet
  facet normal 0 0 1
    outer loop
      vertex 31.7573 -19.1763 1.51962
      vertex 32.3 -19 1.51962
      vertex 31.7573 -12.8237 1.51962
    endloop
  endfacet
  facet normal 0 0 1
    outer loop
      vertex 32.3 -19 1.51962
      vertex 31.7573 -19.1763 1.51962
      vertex 32.0927 -19.2853 1.51962
    endloop
  endfacet
  facet normal 0.733 0.532555 0.423197
    outer loop
      vertex 32.1854 -12.4294 1
      vertex 32.0927 -12.7147 1.51962
      vertex 32.6 -13 1
    endloop
  endfacet
  facet normal 0.733 0.532556 0.423197
    outer loop
      vertex 32.6 -13 1
      vertex 32.0927 -12.7147 1.51962
      vertex 32.3 -13 1.51962
    endloop
  endfacet
  facet normal 0.733 -0.532554 0.423198
    outer loop
      vertex 32.6 -19 1
      vertex 32.0927 -19.2853 1.51962
      vertex 32.1854 -19.5706 1
    endloop
  endfacet
  facet normal -0.279982 0.861693 0.423197
    outer loop
      vertex 32.1854 -12.4294 1
      vertex 31.5146 -12.6473 1
      vertex 31.7573 -12.8237 1.51962
    endloop
  endfacet
  facet normal -0.27998 0.861693 0.423199
    outer loop
      vertex 32.1854 -12.4294 1
      vertex 31.7573 -12.8237 1.51962
      vertex 32.0927 -12.7147 1.51962
    endloop
  endfacet
  facet normal 0.866026 -0 0.499999
    outer loop
      vertex 32.3 -19 1.51962
      vertex 32.6 -13 1
      vertex 32.3 -13 1.51962
    endloop
  endfacet
  facet normal 0.866026 0 0.499999
    outer loop
      vertex 32.6 -13 1
      vertex 32.3 -19 1.51962
      vertex 32.6 -19 1
    endloop
  endfacet
  facet normal -0.27998 -0.861693 0.423198
    outer loop
      vertex 31.7573 -19.1763 1.51962
      vertex 31.5146 -19.3527 1
      vertex 32.1854 -19.5706 1
    endloop
  endfacet
  facet normal -0.906038 0 0.423197
    outer loop
      vertex 31.5146 -12.6473 1
      vertex 31.7573 -19.1763 1.51962
      vertex 31.7573 -12.8237 1.51962
    endloop
  endfacet
  facet normal -0.906038 0 0.423197
    outer loop
      vertex 31.7573 -19.1763 1.51962
      vertex 31.5146 -12.6473 1
      vertex 31.5146 -19.3527 1
    endloop
  endfacet
  facet normal -0.279977 -0.861693 0.423201
    outer loop
      vertex 32.0927 -19.2853 1.51962
      vertex 31.7573 -19.1763 1.51962
      vertex 32.1854 -19.5706 1
    endloop
  endfacet
  facet normal 0.733 -0.532556 0.423197
    outer loop
      vertex 32.3 -19 1.51962
      vertex 32.0927 -19.2853 1.51962
      vertex 32.6 -19 1
    endloop
  endfacet
  facet normal -1 0 0
    outer loop
      vertex 1 5 1
      vertex 1 6 -1
      vertex 1 5 -0.0500002
    endloop
  endfacet
  facet normal -1 0 0
    outer loop
      vertex 1 6 -1
      vertex 1 -5 -0.0500002
      vertex 1 5 -0.0500002
    endloop
  endfacet
  facet normal -1 -0 0
    outer loop
      vertex 1 -5 -0.0500002
      vertex 1 -6 -1
      vertex 1 -5 1
    endloop
  endfacet
  facet normal -1 0 0
    outer loop
      vertex 1 -6 -1
      vertex 1 -5 -0.0500002
      vertex 1 6 -1
    endloop
  endfacet
  facet normal -1 0 0
    outer loop
      vertex 1 6 -1
      vertex 1 5 1
      vertex 1 6 2
    endloop
  endfacet
  facet normal -1 0 0
    outer loop
      vertex 1 -5 1
      vertex 1 6 2
      vertex 1 5 1
    endloop
  endfacet
  facet normal -1 0 0
    outer loop
      vertex 1 -5 1
      vertex 1 -6 2
      vertex 1 6 2
    endloop
  endfacet
  facet normal -1 0 0
    outer loop
      vertex 1 -6 2
      vertex 1 -5 1
      vertex 1 -6 -1
    endloop
  endfacet
  facet normal 0 0 1
    outer loop
      vertex 17 6 2
      vertex 15 3 2
      vertex 17 -6 2
    endloop
  endfacet
  facet normal 0 0 1
    outer loop
      vertex 17 6 2
      vertex 14.809 3.58778 2
      vertex 15 3 2
    endloop
  endfacet
  facet normal 0 0 1
    outer loop
      vertex 17 6 2
      vertex 14.309 3.95106 2
      vertex 14.809 3.58778 2
    endloop
  endfacet
  facet normal 0 0 1
    outer loop
      vertex 17 6 2
      vertex 3.69098 3.95106 2
      vertex 14.309 3.95106 2
    endloop
  endfacet
  facet normal 0 0 1
    outer loop
      vertex 3 3 2
      vertex 1 6 2
      vertex 3 -3 2
    endloop
  endfacet
  facet normal 0 0 1
    outer loop
      vertex 3.19098 3.58778 2
      vertex 1 6 2
      vertex 3 3 2
    endloop
  endfacet
  facet normal 0 0 1
    outer loop
      vertex 3.69098 3.95106 2
      vertex 1 6 2
      vertex 3.19098 3.58778 2
    endloop
  endfacet
  facet normal -0 0 1
    outer loop
      vertex 1 6 2
      vertex 3.69098 3.95106 2
      vertex 17 6 2
    endloop
  endfacet
  facet normal -0 0 1
    outer loop
      vertex 15 -3 2
      vertex 17 -6 2
      vertex 15 3 2
    endloop
  endfacet
  facet normal -0 0 1
    outer loop
      vertex 14.809 -3.58779 2
      vertex 17 -6 2
      vertex 15 -3 2
    endloop
  endfacet
  facet normal -0 0 1
    outer loop
      vertex 14.309 -3.95106 2
      vertex 17 -6 2
      vertex 14.809 -3.58779 2
    endloop
  endfacet
  facet normal -0 0 1
    outer loop
      vertex 3.69098 -3.95106 2
      vertex 17 -6 2
      vertex 14.309 -3.95106 2
    endloop
  endfacet
  facet normal 0 0 1
    outer loop
      vertex 3.69098 -3.95106 2
      vertex 1 -6 2
      vertex 17 -6 2
    endloop
  endfacet
  facet normal 0 0 1
    outer loop
      vertex 3.19098 -3.58779 2
      vertex 1 -6 2
      vertex 3.69098 -3.95106 2
    endloop
  endfacet
  facet normal 0 0 1
    outer loop
      vertex 3 -3 2
      vertex 1 -6 2
      vertex 3.19098 -3.58779 2
    endloop
  endfacet
  facet normal 0 0 1
    outer loop
      vertex 1 -6 2
      vertex 3 -3 2
      vertex 1 6 2
    endloop
  endfacet
  facet normal 1 0 0
    outer loop
      vertex 17 6 2
      vertex 17 5 1
      vertex 17 6 -1
    endloop
  endfacet
  facet normal 1 0 0
    outer loop
      vertex 17 6 2
      vertex 17 -5 1
      vertex 17 5 1
    endloop
  endfacet
  facet normal 1 0 0
    outer loop
      vertex 17 -6 -1
      vertex 17 -5 1
      vertex 17 -6 2
    endloop
  endfacet
  facet normal 1 -0 0
    outer loop
      vertex 17 -6 2
      vertex 17 -5 1
      vertex 17 6 2
    endloop
  endfacet
  facet normal 1 -0 0
    outer loop
      vertex 17 5 -0.0500002
      vertex 17 6 -1
      vertex 17 5 1
    endloop
  endfacet
  facet normal 1 -0 0
    outer loop
      vertex 17 -5 -0.0500002
      vertex 17 6 -1
      vertex 17 5 -0.0500002
    endloop
  endfacet
  facet normal 1 0 0
    outer loop
      vertex 17 -5 -0.0500002
      vertex 17 -6 -1
      vertex 17 6 -1
    endloop
  endfacet
  facet normal 1 0 0
    outer loop
      vertex 17 -5 1
      vertex 17 -6 -1
      vertex 17 -5 -0.0500002
    endloop
  endfacet
  facet normal 0 1 -0
    outer loop
      vertex 17 6 -1
      vertex 1 6 2
      vertex 17 6 2
    endloop
  endfacet
  facet normal 0 1 0
    outer loop
      vertex 1 6 2
      vertex 17 6 -1
      vertex 1 6 -1
    endloop
  endfacet
  facet normal 0 0 -1
    outer loop
      vertex 17 -6 -1
      vertex 15 -3 -1
      vertex 17 6 -1
    endloop
  endfacet
  facet normal 0 0 -1
    outer loop
      vertex 17 -6 -1
      vertex 14.809 -3.58779 -1
      vertex 15 -3 -1
    endloop
  endfacet
  facet normal 0 0 -1
    outer loop
      vertex 17 -6 -1
      vertex 14.309 -3.95106 -1
      vertex 14.809 -3.58779 -1
    endloop
  endfacet
  facet normal 0 0 -1
    outer loop
      vertex 17 -6 -1
      vertex 3.69098 -3.95106 -1
      vertex 14.309 -3.95106 -1
    endloop
  endfacet
  facet normal -0 0 -1
    outer loop
      vertex 3 -3 -1
      vertex 1 -6 -1
      vertex 3 3 -1
    endloop
  endfacet
  facet normal -0 0 -1
    outer loop
      vertex 3.19098 -3.58779 -1
      vertex 1 -6 -1
      vertex 3 -3 -1
    endloop
  endfacet
  facet normal -0 0 -1
    outer loop
      vertex 3.69098 -3.95106 -1
      vertex 1 -6 -1
      vertex 3.19098 -3.58779 -1
    endloop
  endfacet
  facet normal 0 0 -1
    outer loop
      vertex 1 -6 -1
      vertex 3.69098 -3.95106 -1
      vertex 17 -6 -1
    endloop
  endfacet
  facet normal 0 0 -1
    outer loop
      vertex 15 3 -1
      vertex 17 6 -1
      vertex 15 -3 -1
    endloop
  endfacet
  facet normal 0 0 -1
    outer loop
      vertex 14.809 3.58778 -1
      vertex 17 6 -1
      vertex 15 3 -1
    endloop
  endfacet
  facet normal 0 0 -1
    outer loop
      vertex 14.309 3.95106 -1
      vertex 17 6 -1
      vertex 14.809 3.58778 -1
    endloop
  endfacet
  facet normal 0 0 -1
    outer loop
      vertex 3.69098 3.95106 -1
      vertex 17 6 -1
      vertex 14.309 3.95106 -1
    endloop
  endfacet
  facet normal 0 0 -1
    outer loop
      vertex 3.69098 3.95106 -1
      vertex 1 6 -1
      vertex 17 6 -1
    endloop
  endfacet
  facet normal 0 0 -1
    outer loop
      vertex 3.19098 3.58778 -1
      vertex 1 6 -1
      vertex 3.69098 3.95106 -1
    endloop
  endfacet
  facet normal 0 0 -1
    outer loop
      vertex 3 3 -1
      vertex 1 6 -1
      vertex 3.19098 3.58778 -1
    endloop
  endfacet
  facet normal 0 0 -1
    outer loop
      vertex 1 6 -1
      vertex 3 3 -1
      vertex 1 -6 -1
    endloop
  endfacet
  facet normal 0 -1 0
    outer loop
      vertex 1 -6 -1
      vertex 17 -6 2
      vertex 1 -6 2
    endloop
  endfacet
  facet normal 0 -1 -0
    outer loop
      vertex 17 -6 2
      vertex 1 -6 -1
      vertex 17 -6 -1
    endloop
  endfacet
  facet normal -0.951056 -0.309018 0
    outer loop
      vertex 15 3 1
      vertex 14.809 3.58778 2
      vertex 14.809 3.58778 1
    endloop
  endfacet
  facet normal -0.951056 -0.309018 0
    outer loop
      vertex 14.809 3.58778 2
      vertex 15 3 1
      vertex 15 3 2
    endloop
  endfacet
  facet normal -0.951056 -0.309018 0
    outer loop
      vertex 15 3 -1
      vertex 14.809 3.58778 -0.0500002
      vertex 14.809 3.58778 -1
    endloop
  endfacet
  facet normal -0.951056 -0.309018 0
    outer loop
      vertex 14.809 3.58778 -0.0500002
      vertex 15 3 -1
      vertex 15 3 -0.0500002
    endloop
  endfacet
  facet normal 0 -1 0
    outer loop
      vertex 3.69098 3.95106 1
      vertex 14.309 3.95106 2
      vertex 3.69098 3.95106 2
    endloop
  endfacet
  facet normal 0 -1 -0
    outer loop
      vertex 14.309 3.95106 2
      vertex 3.69098 3.95106 1
      vertex 14.309 3.95106 1
    endloop
  endfacet
  facet normal 0 -1 0
    outer loop
      vertex 3.69098 3.95106 -1
      vertex 14.309 3.95106 -0.0500002
      vertex 3.69098 3.95106 -0.0500002
    endloop
  endfacet
  facet normal 0 -1 -0
    outer loop
      vertex 14.309 3.95106 -0.0500002
      vertex 3.69098 3.95106 -1
      vertex 14.309 3.95106 -1
    endloop
  endfacet
  facet normal -0.587786 -0.809017 0
    outer loop
      vertex 14.309 3.95106 1
      vertex 14.809 3.58778 2
      vertex 14.309 3.95106 2
    endloop
  endfacet
  facet normal -0.587786 -0.809017 -0
    outer loop
      vertex 14.809 3.58778 2
      vertex 14.309 3.95106 1
      vertex 14.809 3.58778 1
    endloop
  endfacet
  facet normal -0.587786 -0.809017 0
    outer loop
      vertex 14.309 3.95106 -1
      vertex 14.809 3.58778 -0.0500002
      vertex 14.309 3.95106 -0.0500002
    endloop
  endfacet
  facet normal -0.587786 -0.809017 -0
    outer loop
      vertex 14.809 3.58778 -0.0500002
      vertex 14.309 3.95106 -1
      vertex 14.809 3.58778 -1
    endloop
  endfacet
  facet normal 0.951057 0.309016 0
    outer loop
      vertex 3.19098 -3.58779 2
      vertex 3 -3 1
      vertex 3 -3 2
    endloop
  endfacet
  facet normal 0.951057 0.309016 0
    outer loop
      vertex 3 -3 1
      vertex 3.19098 -3.58779 2
      vertex 3.19098 -3.58779 1
    endloop
  endfacet
  facet normal 0.951057 0.309016 0
    outer loop
      vertex 3.19098 -3.58779 -0.0500002
      vertex 3 -3 -1
      vertex 3 -3 -0.0500002
    endloop
  endfacet
  facet normal 0.951057 0.309016 0
    outer loop
      vertex 3 -3 -1
      vertex 3.19098 -3.58779 -0.0500002
      vertex 3.19098 -3.58779 -1
    endloop
  endfacet
  facet normal 0.587786 0.809017 -0
    outer loop
      vertex 3.69098 -3.95106 1
      vertex 3.19098 -3.58779 2
      vertex 3.69098 -3.95106 2
    endloop
  endfacet
  facet normal 0.587786 0.809017 0
    outer loop
      vertex 3.19098 -3.58779 2
      vertex 3.69098 -3.95106 1
      vertex 3.19098 -3.58779 1
    endloop
  endfacet
  facet normal 0.587786 0.809017 -0
    outer loop
      vertex 3.69098 -3.95106 -1
      vertex 3.19098 -3.58779 -0.0500002
      vertex 3.69098 -3.95106 -0.0500002
    endloop
  endfacet
  facet normal 0.587786 0.809017 0
    outer loop
      vertex 3.19098 -3.58779 -0.0500002
      vertex 3.69098 -3.95106 -1
      vertex 3.19098 -3.58779 -1
    endloop
  endfacet
  facet normal 0.587786 -0.809017 0
    outer loop
      vertex 3.19098 3.58778 1
      vertex 3.69098 3.95106 2
      vertex 3.19098 3.58778 2
    endloop
  endfacet
  facet normal 0.587786 -0.809017 0
    outer loop
      vertex 3.69098 3.95106 2
      vertex 3.19098 3.58778 1
      vertex 3.69098 3.95106 1
    endloop
  endfacet
  facet normal 0.587786 -0.809017 0
    outer loop
      vertex 3.19098 3.58778 -1
      vertex 3.69098 3.95106 -0.0500002
      vertex 3.19098 3.58778 -0.0500002
    endloop
  endfacet
  facet normal 0.587786 -0.809017 0
    outer loop
      vertex 3.69098 3.95106 -0.0500002
      vertex 3.19098 3.58778 -1
      vertex 3.69098 3.95106 -1
    endloop
  endfacet
  facet normal 0.951057 -0.309017 0
    outer loop
      vertex 3 3 2
      vertex 3.19098 3.58778 1
      vertex 3.19098 3.58778 2
    endloop
  endfacet
  facet normal 0.951057 -0.309017 0
    outer loop
      vertex 3.19098 3.58778 1
      vertex 3 3 2
      vertex 3 3 1
    endloop
  endfacet
  facet normal 0.951057 -0.309017 0
    outer loop
      vertex 3 3 -0.0500002
      vertex 3.19098 3.58778 -1
      vertex 3.19098 3.58778 -0.0500002
    endloop
  endfacet
  facet normal 0.951057 -0.309017 0
    outer loop
      vertex 3.19098 3.58778 -1
      vertex 3 3 -0.0500002
      vertex 3 3 -1
    endloop
  endfacet
  facet normal -1 0 0
    outer loop
      vertex 15 -3 1
      vertex 15 3 2
      vertex 15 3 1
    endloop
  endfacet
  facet normal -1 -0 0
    outer loop
      vertex 15 3 2
      vertex 15 -3 1
      vertex 15 -3 2
    endloop
  endfacet
  facet normal -1 0 0
    outer loop
      vertex 15 -3 -1
      vertex 15 3 -0.0500002
      vertex 15 3 -1
    endloop
  endfacet
  facet normal -1 -0 0
    outer loop
      vertex 15 3 -0.0500002
      vertex 15 -3 -1
      vertex 15 -3 -0.0500002
    endloop
  endfacet
  facet normal -0.587786 0.809017 0
    outer loop
      vertex 14.809 -3.58779 1
      vertex 14.309 -3.95106 2
      vertex 14.809 -3.58779 2
    endloop
  endfacet
  facet normal -0.587786 0.809017 0
    outer loop
      vertex 14.309 -3.95106 2
      vertex 14.809 -3.58779 1
      vertex 14.309 -3.95106 1
    endloop
  endfacet
  facet normal -0.587786 0.809017 0
    outer loop
      vertex 14.809 -3.58779 -1
      vertex 14.309 -3.95106 -0.0500002
      vertex 14.809 -3.58779 -0.0500002
    endloop
  endfacet
  facet normal -0.587786 0.809017 0
    outer loop
      vertex 14.309 -3.95106 -0.0500002
      vertex 14.809 -3.58779 -1
      vertex 14.309 -3.95106 -1
    endloop
  endfacet
  facet normal -0.951056 0.309018 0
    outer loop
      vertex 14.809 -3.58779 1
      vertex 15 -3 2
      vertex 15 -3 1
    endloop
  endfacet
  facet normal -0.951056 0.309018 0
    outer loop
      vertex 15 -3 2
      vertex 14.809 -3.58779 1
      vertex 14.809 -3.58779 2
    endloop
  endfacet
  facet normal -0.951056 0.309018 0
    outer loop
      vertex 14.809 -3.58779 -1
      vertex 15 -3 -0.0500002
      vertex 15 -3 -1
    endloop
  endfacet
  facet normal -0.951056 0.309018 0
    outer loop
      vertex 15 -3 -0.0500002
      vertex 14.809 -3.58779 -1
      vertex 14.809 -3.58779 -0.0500002
    endloop
  endfacet
  facet normal 0 1 -0
    outer loop
      vertex 14.309 -3.95106 1
      vertex 3.69098 -3.95106 2
      vertex 14.309 -3.95106 2
    endloop
  endfacet
  facet normal 0 1 0
    outer loop
      vertex 3.69098 -3.95106 2
      vertex 14.309 -3.95106 1
      vertex 3.69098 -3.95106 1
    endloop
  endfacet
  facet normal 0 1 -0
    outer loop
      vertex 14.309 -3.95106 -1
      vertex 3.69098 -3.95106 -0.0500002
      vertex 14.309 -3.95106 -0.0500002
    endloop
  endfacet
  facet normal 0 1 0
    outer loop
      vertex 3.69098 -3.95106 -0.0500002
      vertex 14.309 -3.95106 -1
      vertex 3.69098 -3.95106 -1
    endloop
  endfacet
  facet normal 1 -0 0
    outer loop
      vertex 3 -3 2
      vertex 3 3 1
      vertex 3 3 2
    endloop
  endfacet
  facet normal 1 0 0
    outer loop
      vertex 3 3 1
      vertex 3 -3 2
      vertex 3 -3 1
    endloop
  endfacet
  facet normal 1 -0 0
    outer loop
      vertex 3 -3 -0.0500002
      vertex 3 3 -1
      vertex 3 3 -0.0500002
    endloop
  endfacet
  facet normal 1 0 0
    outer loop
      vertex 3 3 -1
      vertex 3 -3 -0.0500002
      vertex 3 -3 -1
    endloop
  endfacet
  facet normal 0 0 -1
    outer loop
      vertex 17 -5 1
      vertex 15 -3 1
      vertex 17 5 1
    endloop
  endfacet
  facet normal 0 0 -1
    outer loop
      vertex 17 -5 1
      vertex 14.809 -3.58779 1
      vertex 15 -3 1
    endloop
  endfacet
  facet normal 0 0 -1
    outer loop
      vertex 17 -5 1
      vertex 14.309 -3.95106 1
      vertex 14.809 -3.58779 1
    endloop
  endfacet
  facet normal 0 0 -1
    outer loop
      vertex 17 -5 1
      vertex 3.69098 -3.95106 1
      vertex 14.309 -3.95106 1
    endloop
  endfacet
  facet normal -0 0 -1
    outer loop
      vertex 3 -3 1
      vertex 1 -5 1
      vertex 3 3 1
    endloop
  endfacet
  facet normal -0 0 -1
    outer loop
      vertex 3.19098 -3.58779 1
      vertex 1 -5 1
      vertex 3 -3 1
    endloop
  endfacet
  facet normal -0 0 -1
    outer loop
      vertex 3.69098 -3.95106 1
      vertex 1 -5 1
      vertex 3.19098 -3.58779 1
    endloop
  endfacet
  facet normal 0 0 -1
    outer loop
      vertex 1 -5 1
      vertex 3.69098 -3.95106 1
      vertex 17 -5 1
    endloop
  endfacet
  facet normal 0 0 -1
    outer loop
      vertex 15 3 1
      vertex 17 5 1
      vertex 15 -3 1
    endloop
  endfacet
  facet normal 0 0 -1
    outer loop
      vertex 14.809 3.58778 1
      vertex 17 5 1
      vertex 15 3 1
    endloop
  endfacet
  facet normal 0 0 -1
    outer loop
      vertex 14.309 3.95106 1
      vertex 17 5 1
      vertex 14.809 3.58778 1
    endloop
  endfacet
  facet normal 0 0 -1
    outer loop
      vertex 3.69098 3.95106 1
      vertex 17 5 1
      vertex 14.309 3.95106 1
    endloop
  endfacet
  facet normal 0 0 -1
    outer loop
      vertex 3.69098 3.95106 1
      vertex 1 5 1
      vertex 17 5 1
    endloop
  endfacet
  facet normal 0 0 -1
    outer loop
      vertex 3.19098 3.58778 1
      vertex 1 5 1
      vertex 3.69098 3.95106 1
    endloop
  endfacet
  facet normal 0 0 -1
    outer loop
      vertex 3 3 1
      vertex 1 5 1
      vertex 3.19098 3.58778 1
    endloop
  endfacet
  facet normal 0 0 -1
    outer loop
      vertex 1 5 1
      vertex 3 3 1
      vertex 1 -5 1
    endloop
  endfacet
  facet normal 0 -1 0
    outer loop
      vertex 1 5 -0.0500002
      vertex 17 5 1
      vertex 1 5 1
    endloop
  endfacet
  facet normal 0 -1 -0
    outer loop
      vertex 17 5 1
      vertex 1 5 -0.0500002
      vertex 17 5 -0.0500002
    endloop
  endfacet
  facet normal 0 0 1
    outer loop
      vertex 17 5 -0.0500002
      vertex 15 3 -0.0500002
      vertex 17 -5 -0.0500002
    endloop
  endfacet
  facet normal 0 0 1
    outer loop
      vertex 17 5 -0.0500002
      vertex 14.809 3.58778 -0.0500002
      vertex 15 3 -0.0500002
    endloop
  endfacet
  facet normal 0 0 1
    outer loop
      vertex 17 5 -0.0500002
      vertex 14.309 3.95106 -0.0500002
      vertex 14.809 3.58778 -0.0500002
    endloop
  endfacet
  facet normal 0 0 1
    outer loop
      vertex 17 5 -0.0500002
      vertex 3.69098 3.95106 -0.0500002
      vertex 14.309 3.95106 -0.0500002
    endloop
  endfacet
  facet normal 0 0 1
    outer loop
      vertex 3 3 -0.0500002
      vertex 1 5 -0.0500002
      vertex 3 -3 -0.0500002
    endloop
  endfacet
  facet normal 0 0 1
    outer loop
      vertex 3.19098 3.58778 -0.0500002
      vertex 1 5 -0.0500002
      vertex 3 3 -0.0500002
    endloop
  endfacet
  facet normal 0 0 1
    outer loop
      vertex 3.69098 3.95106 -0.0500002
      vertex 1 5 -0.0500002
      vertex 3.19098 3.58778 -0.0500002
    endloop
  endfacet
  facet normal -0 0 1
    outer loop
      vertex 1 5 -0.0500002
      vertex 3.69098 3.95106 -0.0500002
      vertex 17 5 -0.0500002
    endloop
  endfacet
  facet normal -0 0 1
    outer loop
      vertex 15 -3 -0.0500002
      vertex 17 -5 -0.0500002
      vertex 15 3 -0.0500002
    endloop
  endfacet
  facet normal -0 0 1
    outer loop
      vertex 14.809 -3.58779 -0.0500002
      vertex 17 -5 -0.0500002
      vertex 15 -3 -0.0500002
    endloop
  endfacet
  facet normal -0 0 1
    outer loop
      vertex 14.309 -3.95106 -0.0500002
      vertex 17 -5 -0.0500002
      vertex 14.809 -3.58779 -0.0500002
    endloop
  endfacet
  facet normal -0 0 1
    outer loop
      vertex 3.69098 -3.95106 -0.0500002
      vertex 17 -5 -0.0500002
      vertex 14.309 -3.95106 -0.0500002
    endloop
  endfacet
  facet normal 0 0 1
    outer loop
      vertex 3.69098 -3.95106 -0.0500002
      vertex 1 -5 -0.0500002
      vertex 17 -5 -0.0500002
    endloop
  endfacet
  facet normal 0 0 1
    outer loop
      vertex 3.19098 -3.58779 -0.0500002
      vertex 1 -5 -0.0500002
      vertex 3.69098 -3.95106 -0.0500002
    endloop
  endfacet
  facet normal 0 0 1
    outer loop
      vertex 3 -3 -0.0500002
      vertex 1 -5 -0.0500002
      vertex 3.19098 -3.58779 -0.0500002
    endloop
  endfacet
  facet normal 0 0 1
    outer loop
      vertex 1 -5 -0.0500002
      vertex 3 -3 -0.0500002
      vertex 1 5 -0.0500002
    endloop
  endfacet
  facet normal 0 1 -0
    outer loop
      vertex 17 -5 -0.0500002
      vertex 1 -5 1
      vertex 17 -5 1
    endloop
  endfacet
  facet normal 0 1 0
    outer loop
      vertex 1 -5 1
      vertex 17 -5 -0.0500002
      vertex 1 -5 -0.0500002
    endloop
  endfacet
endsolid OpenSCAD_Model
